<?xml version="1.0" encoding="utf-8"?>
<!-- Generator: Adobe Illustrator 27.5.0, SVG Export Plug-In . SVG Version: 6.00 Build 0)  -->
<svg version="1.1" id="Layer_1" xmlns:svgjs="http://svgjs.dev/svgjs"
	 xmlns="http://www.w3.org/2000/svg" xmlns:xlink="http://www.w3.org/1999/xlink" x="0px" y="0px" viewBox="0 0 1000 1000"
	 style="enable-background:new 0 0 1000 1000;" xml:space="preserve">
<style type="text/css">
	.st0{fill:url(#SVGID_1_);}
	.st1{fill:url(#SVGID_00000097468999531154005850000001618567498250107577_);}
	.st2{display:none;fill:url(#SVGID_00000057128175015783530710000015593280314258346927_);}
</style>
<g>
	<g>
		<linearGradient id="SVGID_1_" gradientUnits="userSpaceOnUse" x1="500" y1="1000" x2="500" y2="-9.094947e-13">
			<stop  offset="0" style="stop-color:#00CEA8"/>
			<stop  offset="0.182" style="stop-color:#1DBDB5"/>
			<stop  offset="0.5787" style="stop-color:#6992D8"/>
			<stop  offset="1" style="stop-color:#BF61FF"/>
		</linearGradient>
		<path class="st0" d="M962.3,500l20.5-35.6c35.4-61.3,14.4-139.6-46.9-175l-35.6-20.5v-41.1c0-70.7-57.4-128.1-128.1-128.1h-41.1
			l-20.5-35.6c-35.4-61.3-113.7-82.3-175-46.9L500,37.7l-35.6-20.5c-61.3-35.4-139.6-14.4-175,46.9l-20.5,35.6h-41.1
			C157,99.7,99.7,157,99.7,227.8v41.1l-35.6,20.5c-61.3,35.4-82.3,113.7-46.9,175L37.7,500l-20.5,35.6
			c-35.4,61.3-14.4,139.6,46.9,175l35.6,20.5v41.1c0,70.7,57.4,128.1,128.1,128.1h41.1l20.5,35.6c35.4,61.3,113.7,82.3,175,46.9
			l35.6-20.5l35.6,20.5c61.3,35.4,139.6,14.4,175-46.9l20.5-35.6h41.1c70.7,0,128.1-57.4,128.1-128.1v-41.1l35.6-20.5
			c61.3-35.4,82.3-113.7,46.9-175L962.3,500z M930.3,299.1c27,15.6,46.4,40.8,54.5,71c8.1,30.2,3.9,61.7-11.7,88.7l-17.3,30
			l-55.5-96.1V281.8L930.3,299.1z M784.9,784.9L604.3,889.1H395.7L215.1,784.9L110.9,604.3V395.7l104.3-180.6l180.6-104.3h208.5
			l180.6,104.3l104.3,180.6v208.5L784.9,784.9z M889.1,626.7v98l-84.8,49L889.1,626.7z M773.6,804.3l-49,84.8h-98L773.6,804.3z
			 M584.8,900.3l-84.8,49l-84.8-49H584.8z M373.3,889.1h-98l-49-84.8L373.3,889.1z M195.7,773.6l-84.8-49v-98L195.7,773.6z
			 M99.7,584.8l-49-84.8l49-84.8L99.7,584.8z M110.9,373.3v-98l84.8-49L110.9,373.3z M226.3,195.7l49-84.8h98L226.3,195.7z
			 M415.2,99.7l84.8-49l84.8,49H415.2z M626.7,110.9h98l49,84.8L626.7,110.9z M804.3,226.3l84.8,49v98L804.3,226.3z M900.3,415.2
			l49,84.8l-49,84.8V415.2z M772.2,110.9c31.2,0,60.6,12.2,82.7,34.2c22.1,22.1,34.2,51.4,34.2,82.7v34.6l-96.1-55.5l-55.5-96.1
			L772.2,110.9z M541.2,26.9c27-15.6,58.5-19.8,88.7-11.7c30.2,8.1,55.4,27.4,71,54.5l17.3,30H607.3l-96.1-55.5L541.2,26.9z
			 M299.1,69.7c15.6-27,40.8-46.4,71-54.5c30.2-8.1,61.7-3.9,88.7,11.7l30,17.3l-96.1,55.5H281.8L299.1,69.7z M110.9,227.8
			c0-31.2,12.2-60.6,34.2-82.7c22.1-22.1,51.4-34.2,82.7-34.2h34.6l-55.5,96.1l-96.1,55.5L110.9,227.8z M26.9,458.8
			c-15.6-27-19.8-58.5-11.7-88.7c8.1-30.2,27.4-55.4,54.5-71l30-17.3v110.9l-55.5,96.1L26.9,458.8z M69.7,700.9
			c-27-15.6-46.4-40.8-54.5-71c-8.1-30.2-3.9-61.7,11.7-88.7l17.3-30l55.5,96.1v110.9L69.7,700.9z M227.8,889.1
			c-31.2,0-60.6-12.2-82.7-34.2c-22.1-22.1-34.2-51.4-34.2-82.7v-34.6l96.1,55.5l55.5,96.1L227.8,889.1z M458.8,973.1
			c-27,15.6-58.5,19.8-88.7,11.7c-30.2-8.1-55.4-27.4-71-54.5l-17.3-30h110.9l96.1,55.5L458.8,973.1z M700.9,930.3
			c-15.6,27-40.8,46.4-71,54.5c-30.2,8.1-61.7,3.9-88.7-11.7l-30-17.3l96.1-55.5h110.9L700.9,930.3z M889.1,772.2
			c0,31.2-12.2,60.6-34.2,82.7c-22.1,22.1-51.4,34.2-82.7,34.2h-34.6l55.5-96.1l96.1-55.5V772.2z M984.8,629.9
			c-8.1,30.2-27.4,55.4-54.5,71l-30,17.3V607.3l55.5-96.1l17.3,30C988.7,568.2,992.9,599.7,984.8,629.9z"/>
	</g>
	<g transform="matrix(1,0,0,1,64,122.34114333057167)">
		<g>
			<g>
				<g>
					<g>
						<g transform="matrix(1,0,0,1,0,0)">
							<g id="text-0">
								
									<linearGradient id="SVGID_00000152965216577932178960000007339778263248791196_" gradientUnits="userSpaceOnUse" x1="436.0003" y1="542.5723" x2="436.0003" y2="212.7461">
									<stop  offset="0" style="stop-color:#00CEA8"/>
									<stop  offset="0.182" style="stop-color:#1DBDB5"/>
									<stop  offset="0.5787" style="stop-color:#6992D8"/>
									<stop  offset="1" style="stop-color:#BF61FF"/>
								</linearGradient>
								<path style="fill:url(#SVGID_00000152965216577932178960000007339778263248791196_);" d="M339.8,344.5H357v174.7
									c-7.7,6.6-17.9,12.2-30.6,16.7c-12.8,4.5-28.2,6.7-46.4,6.7c-18.3,0-33.8-4.1-46.5-12.2l0,0c-14.4-8.8-21.6-21.2-21.6-37.3
									l0,0v-160h-57.9C142,316,136,297.3,136,277.2l0,0c0-13.8,2.2-25.8,6.6-35.9c4.3-10.2,9.8-18.1,16.3-23.7l0,0h256.9
									c4.8,7.4,8.8,16.4,11.9,27.1c3.2,10.6,4.8,21.1,4.8,31.6l0,0c0,19.5-4.3,33.9-12.9,43.1c-8.6,9.2-20.2,13.8-34.8,13.8l0,0
									H312c-0.5,1.2-0.8,2.4-0.8,3.7l0,0c0,3,1.8,5,5.3,6l0,0C320.1,343.9,327.9,344.5,339.8,344.5L339.8,344.5z M442.2,492.1
									L442.2,492.1v-249c0-8.6,6.9-15.8,20.8-21.5c13.8-5.7,30.1-8.6,48.8-8.6l0,0c10.7,0,20.7,1.3,30,3.8
									c9.4,2.6,16.5,5.9,21.5,9.9l0,0c6.8,8.6,13,17.4,18.6,26.4c5.6,9,18.3,29.8,38.1,62.6l0,0c1.8,0,3.4-0.6,4.9-1.7
									c1.5-1.2,2.2-3,2.2-5.4c0-2.4-2.1-7.1-6.2-14l0,0l-26.8-46.2v-13.6c8.4-6.9,18.7-12.3,30.7-16.2c12.1-3.8,24.7-5.7,37.6-5.7
									l0,0c21,0,38,3.8,50.9,11.5l0,0c15.1,9.1,22.7,23.3,22.7,42.7l0,0v235.4c0,14.3-6.8,24.6-20.5,31.2l0,0
									c-11.5,5.8-27,8.7-46.4,8.7l0,0c-10.8,0-21.3-1.2-31.5-3.5c-10.2-2.3-18.2-5.3-24-9l0,0c-11.7-15.1-23.4-32-35-50.7l0,0
									l-25.3-42.2c-4.8,0.7-7.2,3.3-7.2,7.7l0,0c0,2.8,2.4,8.1,7.2,16.1l0,0l31,50.2v13.2c-19.2,12.4-40.9,18.6-64.9,18.6
									s-43-4.4-56.7-13.1C449,520.6,442.2,508.2,442.2,492.1L442.2,492.1z"/>
							</g>
						</g>
					</g>
				</g>
			</g>
		</g>
	</g>
</g>
<linearGradient id="SVGID_00000142159266892803093780000017802941179292835509_" gradientUnits="userSpaceOnUse" x1="511.2131" y1="1062.4915" x2="511.2131" y2="-62.5062">
	<stop  offset="0" style="stop-color:#00CEA8"/>
	<stop  offset="0.182" style="stop-color:#1DBDB5"/>
	<stop  offset="0.5787" style="stop-color:#6992D8"/>
	<stop  offset="1" style="stop-color:#BF61FF"/>
</linearGradient>
<rect x="11.2" y="-62.5" style="display:none;fill:url(#SVGID_00000142159266892803093780000017802941179292835509_);" width="1000" height="1125"/>
</svg>
