<svg xmlns="http://www.w3.org/2000/svg" version="1.1"
    xmlns:xlink="http://www.w3.org/1999/xlink"
    xmlns:svgjs="http://svgjs.dev/svgjs" width="1000" height="1125" viewBox="0 0 1000 1125">
    <g transform="matrix(1,0,0,1,0.0011008540699322111,0)">
        <svg viewBox="0 0 320 360" data-background-color="#ffffff" preserveAspectRatio="xMidYMid meet" height="1125" width="1000"
            xmlns="http://www.w3.org/2000/svg"
            xmlns:xlink="http://www.w3.org/1999/xlink">
            <g id="tight-bounds" transform="matrix(1,0,0,1,0.00010353528136874957,0)">
                <svg viewBox="0 0 320 360" height="360" width="320">
                    <g>
                        <svg></svg>
                    </g>
                    <g>
                        <svg viewBox="0 0 320 360" height="360" width="320">
                            <g>
                                <path xmlns="http://www.w3.org/2000/svg" d="M307.925 179.999l6.575-11.387c11.322-19.607 4.604-44.679-15.003-56.001l-11.387-6.575v-13.151c0-22.639-18.354-40.994-40.994-40.994h-13.151l-6.575-11.387c-11.322-19.607-36.393-26.325-56.001-15.003l-11.39 6.572-11.387-6.576c-19.607-11.318-44.679-4.6-56.001 15.007l-6.575 11.387h-13.151c-22.639 0-40.994 18.354-40.994 40.994v13.151l-11.387 6.575c-19.607 11.322-26.325 36.393-15.003 56.001l6.572 11.387-6.576 11.387c-11.318 19.607-4.6 44.679 15.007 56l11.387 6.576v13.15c0 22.639 18.354 40.994 40.994 40.994h13.151l6.575 11.387c11.322 19.607 36.393 26.325 56.001 15.003l11.387-6.571 11.387 6.575c19.607 11.322 44.679 4.604 56-15.003l6.576-11.387h13.15c22.639 0 40.994-18.354 40.994-40.994v-13.151l11.387-6.575c19.607-11.322 26.325-36.393 15.003-56.001zM297.702 115.716c8.655 4.996 14.842 13.062 17.428 22.713 2.586 9.65 1.261 19.734-3.735 28.384l-5.538 9.596-17.747-30.74v-35.494zM251.155 271.155l-57.791 33.365h-66.731l-57.791-33.365-33.365-57.791v-66.731l33.365-57.791 57.791-33.365h66.731l57.791 33.365 33.365 57.791v66.731zM284.517 220.539v31.351l-27.151 15.676zM247.566 277.366l-15.676 27.151h-31.351zM187.15 308.106l-27.151 15.676-27.151-15.676zM119.459 304.517h-31.352l-15.676-27.151zM62.632 267.566l-27.151-15.676v-31.351zM31.891 207.15l-15.675-27.151 15.675-27.151zM35.481 139.459v-31.352l27.151-15.676zM72.431 82.632l15.676-27.151h31.352zM132.848 51.891l27.151-15.675 27.151 15.675zM200.539 55.481h31.351l15.676 27.151zM257.366 92.431l27.151 15.676v31.352zM288.106 152.848l15.676 27.151-15.676 27.151zM247.112 55.481c9.992 0 19.384 3.889 26.452 10.956 7.063 7.063 10.956 16.46 10.957 26.452v11.079l-30.741-17.747-17.747-30.74zM173.18 28.606c8.655-4.996 18.735-6.322 28.385-3.735 9.65 2.586 17.716 8.777 22.712 17.428l5.538 9.596h-35.494l-30.741-17.747zM95.716 42.295c4.996-8.655 13.062-14.842 22.713-17.428 9.65-2.586 19.734-1.261 28.384 3.736l9.596 5.537-30.74 17.747h-35.494zM35.481 92.885c0-9.992 3.889-19.384 10.956-26.452 7.063-7.063 16.46-10.956 26.452-10.956h11.079l-17.747 30.74-30.74 17.747zM8.606 166.817c-4.996-8.655-6.322-18.735-3.735-28.385 2.586-9.65 8.777-17.716 17.428-22.712l9.596-5.538v35.495l-17.747 30.74zM22.295 244.281c-8.655-4.996-14.842-13.062-17.428-22.712-2.586-9.65-1.261-19.734 3.736-28.385l5.537-9.596 17.747 30.74v35.495zM72.885 304.517c-9.992 0-19.384-3.889-26.452-10.957-7.063-7.063-10.956-16.46-10.956-26.451v-11.08l30.74 17.747 17.747 30.741zM146.817 331.391c-8.655 4.996-18.735 6.322-28.385 3.735-9.65-2.586-17.716-8.777-22.712-17.428l-5.538-9.596h35.495l30.74 17.747zM224.281 317.702c-4.996 8.655-13.062 14.842-22.712 17.428-9.65 2.586-19.734 1.261-28.385-3.735l-9.596-5.538 30.74-17.747h35.495zM284.517 267.112c0 9.992-3.889 19.384-10.957 26.452-7.063 7.063-16.46 10.956-26.451 10.957h-11.08l17.747-30.741 30.741-17.747zM315.13 221.565c-2.586 9.65-8.777 17.716-17.428 22.712l-9.596 5.538v-35.494l17.747-30.741 5.538 9.596c4.996 8.658 6.326 18.739 3.739 28.389z" fill="#d61b2e" fill-rule="nonzero" stroke="none" stroke-width="1" stroke-linecap="butt" stroke-linejoin="miter" stroke-miterlimit="10" stroke-dasharray="" stroke-dashoffset="0" font-family="none" font-weight="none" font-size="none" text-anchor="none" style="mix-blend-mode: normal" data-fill-palette-color="tertiary"></path>
                            </g>
                            <g transform="matrix(1,0,0,1,64,122.34114333057167)">
                                <svg viewBox="0 0 192 115.31771333885666" height="115.31771333885666" width="192">
                                    <g>
                                        <svg viewBox="0 0 192 115.31771333885666" height="115.31771333885666" width="192">
                                            <g>
                                                <svg viewBox="0 0 192 115.31771333885666" height="115.31771333885666" width="192">
                                                    <g>
                                                        <svg viewBox="0 0 192 115.31771333885666" height="115.31771333885666" width="192">
                                                            <g>
                                                                <svg viewBox="0 0 192 115.31771333885666" height="115.31771333885666" width="192">
                                                                    <g transform="matrix(1,0,0,1,0,0)">
                                                                        <svg width="192" viewBox="0.17000174522399902 -31.96000099182129 58.94000244140625 32.400001525878906" height="115.31771333885666" data-palette-color="#d61b2e">
                                                                            <svg></svg>
                                                                            <g class="undefined-text-0" data-fill-palette-color="primary" id="text-0">
                                                                                <path xmlns="http://www.w3.org/2000/svg" d="M20.19-19.02h1.69v17.16c-0.753 0.653-1.757 1.2-3.01 1.64-1.253 0.44-2.773 0.66-4.56 0.66-1.793 0-3.317-0.4-4.57-1.2v0c-1.413-0.86-2.12-2.08-2.12-3.66v0-15.72h-5.69c-1.173-1.68-1.76-3.51-1.76-5.49v0c0-1.353 0.217-2.53 0.65-3.53 0.427-1 0.96-1.777 1.6-2.33v0h25.24c0.473 0.727 0.863 1.613 1.17 2.66 0.313 1.04 0.47 2.073 0.47 3.1v0c0 1.92-0.423 3.33-1.27 4.23-0.847 0.907-1.987 1.36-3.42 1.36v0h-7.15c-0.053 0.113-0.08 0.233-0.08 0.36v0c0 0.293 0.173 0.49 0.52 0.59v0c0.353 0.113 1.117 0.17 2.29 0.17zM30.25-4.52v0-24.46c0-0.847 0.68-1.55 2.04-2.11 1.36-0.56 2.957-0.84 4.79-0.84v0c1.047 0 2.03 0.123 2.95 0.37 0.92 0.253 1.623 0.577 2.11 0.97v0c0.667 0.847 1.277 1.71 1.83 2.59 0.553 0.88 1.8 2.93 3.74 6.15v0c0.173 0 0.333-0.057 0.48-0.17 0.147-0.113 0.22-0.29 0.22-0.53 0-0.233-0.203-0.693-0.61-1.38v0l-2.63-4.54v-1.34c0.827-0.68 1.833-1.21 3.02-1.59 1.193-0.373 2.423-0.56 3.69-0.56v0c2.067 0 3.733 0.377 5 1.13v0c1.487 0.893 2.23 2.29 2.23 4.19v0 23.12c0 1.4-0.67 2.42-2.01 3.06v0c-1.133 0.567-2.653 0.85-4.56 0.85v0c-1.06 0-2.09-0.113-3.09-0.34-1-0.227-1.787-0.52-2.36-0.88v0c-1.153-1.48-2.3-3.14-3.44-4.98v0l-2.49-4.15c-0.473 0.067-0.71 0.32-0.71 0.76v0c0 0.273 0.237 0.8 0.71 1.58v0l3.05 4.93v1.3c-1.887 1.22-4.013 1.83-6.38 1.83-2.367 0-4.223-0.43-5.57-1.29-1.34-0.867-2.01-2.09-2.01-3.67z" fill="#d61b2e" fill-rule="nonzero" stroke="none" stroke-width="1" stroke-linecap="butt" stroke-linejoin="miter" stroke-miterlimit="10" stroke-dasharray="" stroke-dashoffset="0" font-family="none" font-weight="none" font-size="none" text-anchor="none" style="mix-blend-mode: normal" data-fill-palette-color="primary" opacity="1"></path>
                                                                            </g>
                                                                        </svg>
                                                                    </g>
                                                                </svg>
                                                            </g>
                                                        </svg>
                                                    </g>
                                                </svg>
                                            </g>
                                        </svg>
                                    </g>
                                </svg>
                            </g>
                        </svg>
                    </g>
                    <defs></defs>
                </svg>
                <rect width="320" height="360" fill="none" stroke="none" visibility="hidden"></rect>
            </g>
        </svg>
    </g>
</svg>